<?xml version="1.0" standalone="no"?><!DOCTYPE svg PUBLIC "-//W3C//DTD SVG 1.1//EN" "http://www.w3.org/Graphics/SVG/1.1/DTD/svg11.dtd"><svg t="1726234308208" class="icon" viewBox="0 0 1024 1024" version="1.1" xmlns="http://www.w3.org/2000/svg" p-id="9836" width="32" height="32" xmlns:xlink="http://www.w3.org/1999/xlink"><path d="M512 1024C433.843388 1024 106.81906 711.976362 106.81906 405.18094 106.81906 181.399386 288.218446 0 512 0S917.13457 181.399386 917.13457 405.18094c0 306.795422-327.012736 618.81906-405.18094 618.81906z" fill="#D81E06" p-id="9837"></path><path d="M422.645036 619.827607c22.477851 7.488753 29.966604-13.111114 20.599867-20.599867-29.966604-20.599866-44.955702-58.066815-33.722573-91.777795 11.244722-37.455356 41.211325-52.444455 41.211326-108.633285 0 0 37.455356 28.100212 29.966603 71.177929 37.466949-43.077717 20.599866-99.278141 13.111114-125.500368 95.522172 50.578063 177.944822 161.135702 82.411058 254.733519-11.233129 9.366737 0 26.222227 16.85549 20.599867C853.456987 471.814611 656.77869 250.826848 623.06771 224.604621c11.244722 26.222227 13.111114 67.433553-9.366738 88.033419-39.333341-148.024589-134.867105-177.944822-134.867105-177.944822 11.244722 76.80029-43.077717 159.211348-93.65578 222.900524C383.311696 325.749154 381.433711 305.149287 366.490983 277.060668c-3.744376 54.322439-46.822094 99.278141-58.066815 155.466972-14.989098 74.922305 11.233129 129.244744 114.255646 187.311559z m0 0" fill="#FFFFFF" p-id="9838"></path></svg>